In White Material, the great contemporary French filmmaker Claire Denis, known for her restless, intimate dramas, introduces an unforgettably crazed character. Played by a ferocious Isabelle Huppert, Maria is an entitled white woman living in Africa, desperately unwilling to give up her familyΓÇÖs crumbling coffee plantation despite the civil war closing in on her. Created with DenisΓÇÖ signature full-throttle visual style, which places the viewer at the center of the maelstrom, White Material is a gripping evocation of the death throes of European colonialism and a fascinating look at a woman lost in her own mind. -- Criterion Collection

_________________________________

Subtitles: English (Embedded), Portuguese (.srt)

_________________________________

General
Complete name                    : D:White Material (Claire Denis, 2009)White.Material.2009.480p.BluRay.x264-HaB.mkv
Format                           : Matroska
File size                        : 1.92 GiB
Duration                         : 1h 45mn
Overall bit rate                 : 2 602 Kbps
Movie name                       : White Material

Video
ID                               : 1
Format                           : AVC
Format/Info                      : Advanced Video Codec
Format profile                   : High@L3.2
Format settings, CABAC           : Yes
Format settings, ReFrames        : 16 frames
Codec ID                         : V_MPEG4/ISO/AVC
Duration                         : 1h 45mn
Bit rate                         : 1 910 Kbps
Width                            : 852 pixels
Height                           : 362 pixels
Display aspect ratio             : 2.35:1
Frame rate                       : 23.976 fps
Color space                      : YUV
Chroma subsampling               : 4:2:0
Bit depth                        : 8 bits
Scan type                        : Progressive
Bits/(Pixel*Frame)               : 0.258
Stream size                      : 1.41 GiB (73%)
Writing library                  : x264 core 116 r2074 2641b9e
Language                         : French

Audio
ID                               : 2
Format                           : AC-3
Format/Info                      : Audio Coding 3
Mode extension                   : CM (complete main)
Codec ID                         : A_AC3
Duration                         : 1h 45mn
Bit rate mode                    : Constant
Bit rate                         : 640 Kbps
Channel(s)                       : 6 channels
Channel positions                : Front: L C R, Side: L R, LFE
Sampling rate                    : 48.0 KHz
Bit depth                        : 16 bits
Compression mode                 : Lossy
Stream size                      : 485 MiB (25%)
Language                         : French

Text
ID                               : 3
Format                           : UTF-8
Codec ID                         : S_TEXT/UTF8
Codec ID/Info                    : UTF-8 Plain Text
Language                         : English